<svg xmlns="http://www.w3.org/2000/svg" viewBox="0 0 1200 675" role="img" aria-labelledby="title desc">
  <title id="title">Instagram AutoDM workflow showcase</title>
  <desc id="desc">A portfolio visual showing an owned Instagram comment-to-DM workflow, queue, admin controls, and final DM handoff.</desc>
  <defs>
    <filter id="hard-shadow" x="-8%" y="-8%" width="116%" height="116%">
      <feDropShadow dx="10" dy="10" stdDeviation="0" flood-color="#9b3328" flood-opacity="1"/>
    </filter>
    <style>
      .paper{fill:#f7efd9}
      .ink{fill:#171a1f}
      .cream{fill:#fff8e8}
      .tan{fill:#eadcbc}
      .green{fill:#2f6d51}
      .blue{fill:#3c67a4}
      .red{fill:#9b3328}
      .muted{fill:#68707a}
      .line{stroke:#171a1f;stroke-width:3}
      .thin{stroke:#171a1f;stroke-width:2}
      .mono{font-family:"JetBrains Mono", "SFMono-Regular", Consolas, monospace;font-weight:700}
      .display{font-family:"Bricolage Grotesque", Inter, system-ui, sans-serif;font-weight:800}
      .body{font-family:Inter, system-ui, sans-serif;font-weight:700}
      .tiny{font-size:15px}
      .small{font-size:19px}
      .body-size{font-size:24px}
      .h{font-size:52px;letter-spacing:-.5px}
      .xl{font-size:72px;letter-spacing:-1px}
    </style>
  </defs>

  <rect class="paper" width="1200" height="675"/>
  <path d="M0 90h1200M0 180h1200M0 270h1200M0 360h1200M0 450h1200M0 540h1200M0 630h1200M100 0v675M200 0v675M300 0v675M400 0v675M500 0v675M600 0v675M700 0v675M800 0v675M900 0v675M1000 0v675M1100 0v675" stroke="#171a1f" stroke-opacity=".08"/>

  <rect x="46" y="44" width="1108" height="584" class="cream line" filter="url(#hard-shadow)"/>
  <rect x="46" y="44" width="1108" height="84" class="ink"/>
  <circle cx="84" cy="86" r="10" class="red"/>
  <circle cx="116" cy="86" r="10" fill="#d7a64a"/>
  <circle cx="148" cy="86" r="10" class="green"/>
  <text x="184" y="92" class="mono small cream">Workflow backend showcase</text>
  <text x="875" y="92" class="mono tiny" fill="#c9d3df">official API / self-hosted</text>

  <text x="72" y="191" class="display h ink">IG comment-to-DM backend</text>
  <text x="72" y="228" class="body small muted">Owned campaigns. Official API. Operator controls. No public source.</text>

  <g transform="translate(80 275)">
    <rect x="0" y="0" width="225" height="300" rx="34" class="ink"/>
    <rect x="17" y="20" width="191" height="260" rx="24" class="cream"/>
    <circle cx="112" cy="48" r="18" class="red"/>
    <text x="44" y="88" class="mono tiny muted">@brand.page</text>
    <rect x="36" y="112" width="154" height="64" rx="18" class="tan thin"/>
    <text x="54" y="139" class="body tiny ink">Comment</text>
    <text x="54" y="162" class="display body-size ink">MAU</text>
    <path d="M55 209h96" stroke="#171a1f" stroke-width="7" stroke-linecap="round"/>
    <path d="M55 232h126" stroke="#171a1f" stroke-width="7" stroke-linecap="round"/>
    <path d="M55 255h72" stroke="#171a1f" stroke-width="7" stroke-linecap="round"/>
  </g>

  <g transform="translate(354 274)">
    <rect x="0" y="0" width="250" height="302" class="tan line"/>
    <text x="24" y="43" class="mono tiny blue">EVENT ROUTE</text>
    <g transform="translate(26 74)">
      <circle cx="16" cy="16" r="16" class="green"/>
      <text x="52" y="23" class="body small ink">comment match</text>
    </g>
    <g transform="translate(26 126)">
      <circle cx="16" cy="16" r="16" class="green"/>
      <text x="52" y="23" class="body small ink">webhook check</text>
    </g>
    <g transform="translate(26 178)">
      <circle cx="16" cy="16" r="16" class="blue"/>
      <text x="52" y="23" class="body small ink">queue send</text>
    </g>
    <g transform="translate(26 230)">
      <circle cx="16" cy="16" r="16" class="red"/>
      <text x="52" y="23" class="body small ink">DM handoff</text>
    </g>
    <path d="M42 90v36M42 142v36M42 194v36" stroke="#171a1f" stroke-width="5" stroke-linecap="round"/>
  </g>

  <g transform="translate(654 274)">
    <rect x="0" y="0" width="420" height="302" class="ink"/>
    <text x="26" y="45" class="mono tiny" fill="#8fcca8">OPS PANEL</text>
    <text x="26" y="88" class="display body-size cream">Campaign controls</text>
    <g transform="translate(26 118)">
      <rect width="168" height="54" class="cream"/>
      <text x="18" y="22" class="mono tiny blue">STATUS</text>
      <text x="18" y="43" class="body tiny ink">paused by default</text>
    </g>
    <g transform="translate(214 118)">
      <rect width="178" height="54" class="cream"/>
      <text x="18" y="22" class="mono tiny blue">QUEUE</text>
      <text x="18" y="43" class="body tiny ink">retry-safe jobs</text>
    </g>
    <g transform="translate(26 198)">
      <rect width="366" height="62" fill="#2f6d51"/>
      <text x="20" y="26" class="mono tiny cream">ADMIN PREVIEW</text>
      <text x="20" y="49" class="body tiny cream">template, reply, button step, final link</text>
    </g>
  </g>

  <path d="M317 425h27" class="line" fill="none"/>
  <path d="M336 412l17 13-17 13" class="line" fill="none" stroke-linecap="round" stroke-linejoin="round"/>
  <path d="M614 425h30" class="line" fill="none"/>
  <path d="M636 412l17 13-17 13" class="line" fill="none" stroke-linecap="round" stroke-linejoin="round"/>

  <rect x="72" y="596" width="456" height="32" class="red"/>
  <text x="88" y="618" class="mono tiny cream">Comment trigger -> queue -> admin controls -> DM handoff.</text>
</svg>
